<svg height="62" viewBox="0 0 62 62" width="62" xmlns="http://www.w3.org/2000/svg"><g fill="none" fill-rule="evenodd" stroke="#fff" transform="translate(1 1)"><path d="m9.47312079 40.8826921v.5051297c-.22225617 3.7500205-2.72438601 6.911277-6.31750305 8.6237884-.33338857.1471953-.53880807.4884045-.50849688.8496958.03031118.3612828.28287854.6657017.63646595.759373 3.44837164.7794466 7.05166139.5151664 10.34511489-.7627129 2.5761923-.9567524 4.8964291-2.4854837 6.7856195-4.4692976.2087903-.2174445.5152385-.3111073.8115829-.2475464 2.5963652.5820757 5.2499734.8697437 7.9137543.8563841 16.0702739 0 29.0956357-10.5241049 29.0956357-23.5171653 0-12.989635-13.0693285-23.4803409-29.1396024-23.4803409-16.070274 0-29.09563575 10.5241049-29.09563575 23.5137398-.00336216 1.3782647.14480575 2.7497639.44115019 4.094544.24246363 1.1206643.58258515 2.2178637 1.017011 3.2816641 1.70065069 3.9976012 4.47210697 7.4531969 8.01479158 9.9922903zm29.01804731-14.4985838c-3.2934535-4.5060365 1.7241859-9.5075769 6.2838815-6.2422698h.0033708c.0841833.0602124.1616424.1371585.2222561.2207844 3.2934536 4.5060366-1.7241858 9.507577-6.2838814 6.2422698v.0033485c-.0875542-.0635609-.1616424-.1404984-.225627-.2241329zm-12.9313936 0c-3.2934536-4.5060365 1.7241858-9.5075769 6.2838814-6.2422698h.0033708c.0841834.0602124.1616424.1371585.2222562.2207844 3.2934535 4.5060366-1.7241858 9.507577-6.2838815 6.2422698v.0033485c-.0875541-.0635609-.1616424-.1404984-.2256269-.2241329zm-12.9313937 0c-3.2934535-4.5060365 1.7241859-9.5075769 6.2838815-6.2422698h.0033708c.0841833.0602124.1616424.1371585.2222561.2207844 3.2934536 4.5060366-1.7241858 9.507577-6.2838814 6.2422698v.0033485c-.0875542-.0635609-.1616424-.1404984-.225627-.2241329z"/><path d="m57.0488475 37.0588235c1.8637224 2.0284418 2.9131256 4.6671132 2.9495661 7.4146246.0132373.7553186-.0562794 1.507378-.2118636 2.246206-.1357284.6068944-.3211091 1.2039097-.5495236 1.7811243-.9235561 2.1735898-2.426517 4.0503818-4.3498155 5.4290771v.2770563.0033015c.1357283 1.7382301 1.0957589 3.3049677 2.5854148 4.2218743.287999.2011977.4204138.554121.3343463.8938553-.0827624.3364327-.3674479.5904037-.7150399.6332811-2.9528712.2671687-5.8726069-.7882999-7.9647183-2.8794872-.2052451-.2077922-.5031762-.2968484-.7911753-.2374804-1.3373682.2902539-2.7045669.4353766-4.0750707.4320835-6.2963342 0-11.7389426-2.9982063-14.2609678-7.3289205" stroke-linecap="round" stroke-linejoin="round"/></g></svg>