<svg width="51" height="49" xmlns="http://www.w3.org/2000/svg"><g fill="#FFF" fill-rule="evenodd"><path d="M25.33 49c-1.777 0-3.552-.359-5.197-1.076l-7.863-3.427a29.757 29.757 0 00-8.94-2.335l-2.582-.26A.832.832 0 010 41.075v-8.12c0-.18.058-.356.166-.5.194-.259 4.821-6.32 11.89-4.743 3.977.886 7.178 2.543 9.163 3.778a9.234 9.234 0 004.886 1.37h7.863c1.356 0 2.547.719 3.213 1.797l6.772-7.822C45.266 25.076 47.414 24 49.663 24h.506a.836.836 0 01.76 1.168l-6.124 13.955a10.92 10.92 0 01-7.293 6.167l-1.078.27-6.268 2.514A13.01 13.01 0 0125.33 49zM1.662 40.32l1.834.184a31.431 31.431 0 019.438 2.465l7.862 3.427a11.408 11.408 0 008.753.13l6.32-2.535a.854.854 0 01.107-.034l1.132-.284a9.244 9.244 0 006.175-5.22l5.587-12.73a5.553 5.553 0 00-3.624 2.157l-7.502 8.668.002.097a3.786 3.786 0 01-3.777 3.786h-10.97c-1.427 0-2.836.23-4.19.681l-.304-.777-.259-.792.043-.013a14.843 14.843 0 014.71-.766h10.97a2.12 2.12 0 000-4.24h-7.863c-2.065 0-4.058-.56-5.762-1.62-1.876-1.166-4.9-2.731-8.647-3.567-5.353-1.19-9.206 2.929-10.034 3.911v7.072zM32.345 24c-1.309 0-2.776-.415-4.392-1.244a.872.872 0 01-.42-.487c-.066-.19-1.587-4.68.83-8 1.756-2.413 5.058-3.5 9.82-3.228.435.024.781.382.803.829.017.347.368 8.534-3.7 11.26-.864.58-1.847.87-2.94.87zm-3.307-2.646c2.236 1.076 4.023 1.182 5.318.313 2.412-1.616 2.934-6.416 2.946-8.914-3.731-.094-6.272.77-7.576 2.561-1.552 2.134-.95 5.069-.688 6.04zM19.843 13c-1.422 0-3.063-.324-4.496-1.441C12.918 9.664 11.802 6.056 12.03.837c.019-.437.344-.787.754-.813.347-.021 8.56-.488 11.324 3.928 1.288 2.056 1.182 4.748-.312 8.004a.821.821 0 01-.444.427c-.108.042-1.614.617-3.508.617zM13.608 1.704c-.07 4.18.833 7.03 2.687 8.477 2.22 1.731 5.251.995 6.204.7 1.09-2.519 1.182-4.53.274-5.982-1.69-2.699-6.643-3.227-9.165-3.195z" fill-rule="nonzero"/><path d="M26.648 34a.84.84 0 01-.837-.885c.05-.99.134-1.93.248-2.82.349-5.961.17-19.841-8.557-23.681a.844.844 0 01-.432-1.11.837.837 0 011.103-.433c5.143 2.262 8.378 7.895 9.354 16.29.087.752.153 1.494.202 2.216 2.298-5.84 5.814-7.904 6.023-8.022a.835.835 0 011.14.321.845.845 0 01-.317 1.146c-.088.052-5.48 3.306-6.833 13.34a40.655 40.655 0 01-.265 2.911.839.839 0 01-.829.727z"/></g></svg>