<?xml version="1.0" encoding="UTF-8"?>
<svg width="14px" height="15px" viewBox="0 0 14 15" version="1.1" xmlns="http://www.w3.org/2000/svg" xmlns:xlink="http://www.w3.org/1999/xlink">
    <!-- Generator: Sketch 49.2 (51160) - http://www.bohemiancoding.com/sketch -->
    <title>Group</title>
    <desc>Created with Sketch.</desc>
    <defs></defs>
    <g id="Design" stroke="none" stroke-width="1" fill="none" fill-rule="evenodd">
        <g id="HOME-V4" transform="translate(-1248.000000, -47.000000)" fill="#F6EBD4">
            <g id="Group" transform="translate(1248.000000, 47.000000)">
                <path d="M7,7.5 C4.88010526,7.5 3.16252632,5.83426786 3.16252632,3.78 C3.16252632,1.725 4.88014211,0.0592857143 7,0.0592857143 C9.11985789,0.0592857143 10.8374737,1.72501786 10.8374737,3.78 C10.8374737,5.83428571 9.11985789,7.5 7,7.5 Z M7,6.75571429 C8.69530789,6.75571429 10.0704211,5.42341071 10.0704211,3.78 C10.0704211,2.13589286 8.69532632,0.803571429 7,0.803571429 C5.30467368,0.803571429 3.92957895,2.135875 3.92957895,3.78 C3.92957895,5.42341071 5.30467368,6.75571429 7,6.75571429 Z" id="Fill-1"></path>
                <path d="M0.0921052632,12.3360714 C0.0921052632,10.0760714 1.98247368,8.24428571 4.31384211,8.24428571 L9.68615789,8.24428571 C12.0175263,8.24428571 13.9078947,10.0760714 13.9078947,12.3360714 L13.9078947,14.5682143 C13.9078947,14.7739823 13.7359176,14.9406966 13.5243684,14.9406966 L0.475631579,14.9406966 C0.264084211,14.9406966 0.0921052632,14.7739841 0.0921052632,14.5682143 L0.0921052632,12.3360714 Z M13.1401053,12.3360714 C13.1401053,10.4869643 11.59375,8.98785714 9.68615789,8.98785714 L4.31384211,8.98785714 C2.40634211,8.98785714 0.859894737,10.486875 0.859894737,12.3360714 L0.859894737,14.1964286 L13.1401053,14.1964286 L13.1401053,12.3360714 Z" id="Fill-2"></path>
            </g>
        </g>
    </g>
</svg>