<svg height="15" viewBox="0 0 14 15" width="14" xmlns="http://www.w3.org/2000/svg"><g fill="#f6ebd4" fill-rule="evenodd"><path d="m7 7.5c-2.11989474 0-3.83747368-1.66573214-3.83747368-3.72 0-2.055 1.71761579-3.72071429 3.83747368-3.72071429s3.8374737 1.66573215 3.8374737 3.72071429c0 2.05428571-1.71761581 3.72-3.8374737 3.72zm0-.74428571c1.69530789 0 3.0704211-1.33230358 3.0704211-2.97571429 0-1.64410714-1.37509478-2.97642857-3.0704211-2.97642857s-3.07042105 1.33230357-3.07042105 2.97642857c0 1.64341071 1.37509473 2.97571429 3.07042105 2.97571429z"/><path d="m.09210526 12.3360714c0-2.26 1.89036842-4.09178569 4.22173685-4.09178569h5.37231578c2.33136841 0 4.22173681 1.83178569 4.22173681 4.09178569v2.2321429c0 .205768-.1719771.3724823-.3835263.3724823h-13.04873682c-.21154737 0-.38352632-.1667125-.38352632-.3724823zm13.04800004 0c0-1.8491071-1.5463553-3.34821426-3.45394741-3.34821426h-5.37231578c-1.9075 0-3.45394737 1.49901786-3.45394737 3.34821426v1.8603572h12.28021056z"/></g></svg>