<svg height="60" viewBox="0 0 62 60" width="62" xmlns="http://www.w3.org/2000/svg"><g fill="none" fill-rule="evenodd" stroke="#fff" stroke-linecap="round" stroke-linejoin="round"><path d="m61.4562353 3.95373304v46.59916726c0 1.8833955-1.4999282 3.415229-3.3548228 3.415229h-54.200582c-1.84400605 0-3.35482281-1.5318335-3.35482281-3.415229v-46.59916726c0-1.88339545 1.51094486-3.41522895 3.35482281-3.41522895h54.19802c1.8604029 0 3.357641 1.5318335 3.357641 3.41522895z"/><path d="m6.7704075 7.97676029h41.8107074v38.55493101h-41.8107074z"/><path d="m55.2305533 18.678166v2.7567808c0 .9877372-.7898675 1.7884595-1.7640714 1.7884595h-4.8822926v-6.3338369l4.8822926.0000073c.974268-.0027923 1.7640714.797995 1.7640714 1.7884594z"/><path d="m55.2305533 33.0757126v2.7567808c0 .9877371-.7898675 1.7884594-1.7640714 1.7884594h-4.8822926v-6.3338295h4.8822926c.974268 0 1.7640714.8007872 1.7640714 1.7884594z"/><path d="m35.2878745 27.2548751c0 4.260692-3.4072159 7.7148824-7.6096794 7.7148824-4.2052817 0-7.6124976-3.4543203-7.6124976-7.7148824 0-4.2634192 3.4072159-7.7177395 7.6124976-7.7177395 4.2025916 0 7.6096794 3.4543203 7.6096794 7.7177395"/><path d="m22.2946454 21.7976777 1.6485247 1.6713154"/><path d="m31.4128357 31.0406273 1.6458347 1.6685881"/><path d="m20.0656975 27.2548751h2.3283538"/><path d="m32.9602892 27.2548751h2.3283539"/><path d="m22.2946454 32.7094751 1.6485247-1.6685881"/><path d="m31.4128357 23.469123 1.6458347-1.6713154"/><path d="m27.6787075 34.969238v-2.3605431"/><path d="m27.6787075 21.9002761v-2.3632703"/><path d="m51.3106793 53.9681293v4.0904305c0 .7784623-.6137292 1.4035205-1.3705467 1.4035205h-5.9446297c-.767847 0-1.3843816-.622214-1.3843816-1.4035205v-4.0904305z"/><path d="m19.3893271 53.9681293v4.0904305c0 .7784623-.6137293 1.4035205-1.3705468 1.4035205h-5.9446297c-.7678469 0-1.3843816-.622214-1.3843816-1.4035205v-4.0904305z"/></g></svg>