<?xml version="1.0" encoding="UTF-8"?>
<svg width="62px" height="60px" viewBox="0 0 62 60" version="1.1" xmlns="http://www.w3.org/2000/svg" xmlns:xlink="http://www.w3.org/1999/xlink">
    <!-- Generator: Sketch 49.1 (51147) - http://www.bohemiancoding.com/sketch -->
    <title>Group</title>
    <desc>Created with Sketch.</desc>
    <defs></defs>
    <g id="Design" stroke="none" stroke-width="1" fill="none" fill-rule="evenodd" stroke-linecap="round" stroke-linejoin="round">
        <g id="HOME-V4" transform="translate(-689.000000, -1782.000000)" stroke="#FFFFFF">
            <g id="Group" transform="translate(689.000000, 1782.000000)">
                <path d="M61.4562353,3.95373304 L61.4562353,50.5529003 C61.4562353,52.4362958 59.9563071,53.9681293 58.1014125,53.9681293 L3.9008305,53.9681293 C2.05682445,53.9681293 0.546007691,52.4362958 0.546007691,50.5529003 L0.546007691,3.95373304 C0.546007691,2.07033759 2.05695255,0.538504086 3.9008305,0.538504086 L58.0988505,0.538504086 C59.9592534,0.538504086 61.4564915,2.07033759 61.4564915,3.95373304 L61.4562353,3.95373304 Z" id="Stroke-1"></path>
                <polygon id="Stroke-2" points="6.7704075 7.97676029 48.5811149 7.97676029 48.5811149 46.5316913 6.7704075 46.5316913"></polygon>
                <path d="M55.2305533,18.678166 L55.2305533,21.4349468 C55.2305533,22.422684 54.4406858,23.2234063 53.4664819,23.2234063 L48.5841893,23.2234063 L48.5841893,16.8895694 L53.4664819,16.8895767 C54.4407499,16.8867844 55.2305533,17.6875717 55.2305533,18.6780361 L55.2305533,18.678166 Z" id="Stroke-3"></path>
                <path d="M55.2305533,33.0757126 L55.2305533,35.8324934 C55.2305533,36.8202305 54.4406858,37.6209528 53.4664819,37.6209528 L48.5841893,37.6209528 L48.5841893,31.2871233 L53.4664819,31.2871233 C54.4407499,31.2871233 55.2305533,32.0879105 55.2305533,33.0755827 L55.2305533,33.0757126 Z" id="Stroke-4"></path>
                <path d="M35.2878745,27.2548751 C35.2878745,31.5155671 31.8806586,34.9697575 27.6781951,34.9697575 C23.4729134,34.9697575 20.0656975,31.5154372 20.0656975,27.2548751 C20.0656975,22.9914559 23.4729134,19.5371356 27.6781951,19.5371356 C31.8807867,19.5371356 35.2878745,22.9914559 35.2878745,27.2548751" id="Stroke-5"></path>
                <path d="M22.2946454,21.7976777 L23.9431701,23.4689931" id="Stroke-6"></path>
                <path d="M31.4128357,31.0406273 L33.0586704,32.7092154" id="Stroke-7"></path>
                <path d="M20.0656975,27.2548751 L22.3940513,27.2548751" id="Stroke-8"></path>
                <path d="M32.9602892,27.2548751 L35.2886431,27.2548751" id="Stroke-9"></path>
                <path d="M22.2946454,32.7094751 L23.9431701,31.040887" id="Stroke-10"></path>
                <path d="M31.4128357,23.469123 L33.0586704,21.7978076" id="Stroke-11"></path>
                <path d="M27.6787075,34.969238 L27.6787075,32.6086949" id="Stroke-12"></path>
                <path d="M27.6787075,21.9002761 L27.6787075,19.5370058" id="Stroke-13"></path>
                <path d="M51.3106793,53.9681293 L51.3106793,58.0585598 C51.3106793,58.8370221 50.6969501,59.4620803 49.9401326,59.4620803 L43.9955029,59.4620803 C43.2276559,59.4620803 42.6111213,58.8398663 42.6111213,58.0585598 L42.6111213,53.9681293 L51.3106793,53.9681293 Z" id="Stroke-14"></path>
                <path d="M19.3893271,53.9681293 L19.3893271,58.0585598 C19.3893271,58.8370221 18.7755978,59.4620803 18.0187803,59.4620803 L12.0741506,59.4620803 C11.3063037,59.4620803 10.689769,58.8398663 10.689769,58.0585598 L10.689769,53.9681293 L19.3893271,53.9681293 Z" id="Stroke-15"></path>
            </g>
        </g>
    </g>
</svg>