<svg height="59" viewBox="0 0 49 59" width="49" xmlns="http://www.w3.org/2000/svg"><g fill="#fff" fill-rule="evenodd" transform="translate(-9 -4)"><path d="m20.1 28.14h6.7c.3690226 0 .67-.3009774.67-.67s-.3009774-.67-.67-.67h-6.7c-.3690226 0-.67.3009774-.67.67s.3009774.67.67.67z"/><path d="m22.11 62.31h29.48c3.329096 0 6.03-2.700904 6.03-6.03v-38.86c0-3.329096-2.700904-6.03-6.03-6.03h-2.01v-.67c0-3.329096-2.700904-6.03-6.03-6.03h-21.52107c-.1779654 0-.3507048.0732846-.4737101.2015226l-11.98161 12.2275c-.1230053.1230053-.1936702.293125-.1936702.4684774v30.6525c0 3.329096 2.700904 6.03 6.03 6.03h.67v2.01c0 3.329096 2.700904 6.03 6.03 6.03zm29.48-49.58c2.591024 0 4.69 2.098976 4.69 4.69v38.86c0 1.243185-.4946476 2.436589-1.374036 3.315964s-2.072846 1.374036-3.315964 1.374036h-29.48c-2.591024 0-4.69-2.098976-4.69-4.69v-2.01h26.13c3.329096 0 6.03-2.700904 6.03-6.03v-35.51zm-30.15-5.815399v8.4956c0 1.109654-.900346 2.01-2.01 2.01h-8.28053zm-10.72 41.3256v-29.48h8.71c.887214 0 1.740459-.3533178 2.368584-.981416s.981416-1.481303.981416-2.368584v-9.38h20.77c2.591024 0 4.69 2.098976 4.69 4.69v37.52c0 1.243185-.4946476 2.436589-1.374036 3.315964s-2.072846 1.374036-3.315964 1.374036h-28.14c-2.591024 0-4.69-2.098976-4.69-4.69z"/><path d="m20.1 36.18h18.76c.3690226 0 .67-.3009774.67-.67s-.3009774-.67-.67-.67h-18.76c-.3690226 0-.67.3009774-.67.67s.3009774.67.67.67z"/><path d="m20.1 44.22h18.76c.3690226 0 .67-.3009774.67-.67s-.3009774-.67-.67-.67h-18.76c-.3690226 0-.67.3009774-.67.67s.3009774.67.67.67z"/></g></svg>