<svg height="60" viewBox="0 0 67 60" width="67" xmlns="http://www.w3.org/2000/svg"><path d="m1230.95217 24.0472781h-3.32826c-1.13348-3.3549219-3.06743-6.4209865-5.65722-8.9627824v-5.15381734c0-.13837561-.0568-.26946143-.16009-.36656549-.10328-.09710406-.24529-.15293657-.38988-.15293657h-7.67617c-.85725-.39326988-1.74028-.75253315-2.63368-1.06568986l-.01291-.00242993c-.67389-3.16071384-2.87125-5.8505429-5.94899-7.27550225-3.07516-1.42502149-6.68203-1.42259778-9.7603.00242993-3.07516 1.4250215-5.27251 4.1123647-5.9464 7.27550225-.04648.00242372-.09295.0097073-.13943.02184453-9.52499 3.37679753-16.15083 10.82718033-17.33799 19.47674383l-3.74138 2.6800721c-.13685.099534-.21947.2500406-.21947.410267 0 .16265.08004.3155866.21689.4126907l3.89109 2.8184725c.82625 4.6124583 3.12686 8.8801274 6.5971 12.2329364v11.0819844c0 .1383757.05938.2694615.16266.3665655.10328.0971041.24272.1529366.38989.1529366h12.1974c.14718 0 .2866-.0558344.38988-.1529366s.16009-.2281961.16009-.3665655v-3.7919399c4.14413 1.07545 8.47928 1.3303132 12.73479.7525363v3.0417652-.0024274c0 .1383756.05681.2694614.16266.3665655.10329.097104.24272.1529365.38731.1529365h12.24896c.14459 0 .2866-.0558343.38988-.1529365s.16009-.2281961.16009-.3665655v-8.081543c4.4772-2.9835339 7.81828-7.2413217 9.53027-12.1428238h3.33341c.54481.0048536 1.06897-.1966381 1.45367-.5583499.3847-.3617119.59903-.8545158.59387-1.366728v-9.4046447c-.01549-1.0487239-.93214-1.891121-2.04758-1.8789403zm-30.68486-23.01102087c2.62595 0 5.146.97831175 7.00989 2.71891367 1.86163 1.74302564 2.91513 4.10751726 2.9306 6.576353.01549 2.4713216-1.01212 4.8455081-2.85313 6.6055619-.01034.0097073-.01291.0218446-.02066.0291281l-.00259.00243c-4.53405-1.6920654-9.58447-1.6944892-14.11826-.0072836-1.85648-1.7551442-2.89444-4.1293307-2.88929-6.6055619.00517-2.47374536 1.05608-4.84550813 2.92029-6.59313262 1.86422-1.74787307 4.38943-2.72860854 7.02311-2.72618482zm31.63009 34.29497877c.00516.2379033-.09295.4660994-.27112.6360082-.17816.1675038-.42345.2573242-.67389.2524706h-3.73873c-.24272 0-.45702.1505128-.52673.3689954-1.62665 4.9207677-4.95749 9.1858887-9.4655 12.1185867-.14718.097104-.23238.2549004-.23496.4248279v7.8317118h-11.14377v-3.129203c0-.1529366-.0723-.2985958-.19624-.3981298-.12394-.097104-.28919-.1383756-.44927-.1140949-4.53405.7185365-9.18193.4369652-13.58153-.8180978-.16784-.0485552-.34857-.0194208-.48801.0776832-.13943.099534-.22205.2524706-.22205.4175506v3.9642668h-11.0975v-10.7762176c0-.1359457-.05681-.2670377-.16009-.3641418-3.44697-3.2675438-5.71657-7.4718855-6.48346-12.019152-.02324-.1335158-.09812-.2524706-.20915-.3325838l-3.49609-2.5319767 3.35404-2.4033332c.11878-.0849669.19624-.211199.21172-.3495746 1.04055-8.2294526 7.25314-15.3495883 16.24602-18.6874821-.02582.29131218-.04648.5850543-.04648.8860862v-.0024299c-.00516 2.6023888 1.03797 5.1077046 2.91772 7.0157294-1.19291.521932-2.32123 1.1676725-3.36435 1.9251152-.11361.0849668-.18849.2087753-.20656.344721-.01808.1359456.02065.2743213.11102.3811326.09038.1092413.22206.179641.36665.1966381.14718.0169909.29177-.0218508.40796-.1068114 3.1139-2.2115488 6.90942-3.4059443 10.81063-3.4059443 3.90141 0 7.69732 1.1968192 10.81063 3.408368.24271.1747873.58612.1310921.77204-.0946741.18591-.2281961.14201-.55349-.10069-.7258723-1.04313-.7501094-2.17152-1.393451-3.36178-1.9177818 1.88233-1.9105108 2.92545-4.4182503 2.92287-7.0207012 0-.2913122-.02065-.57534081-.04648-.86178691.71262.26703772 1.42009.55349001 2.10436.87148171l-.00258.00243c.07746.0364117.16008.0534025.24529.0534025h7.25577v4.8430844c0 .1359457.05423.2646078.15493.3617119 2.63884 2.5441574 4.58052 5.6514873 5.66237 9.0572452.06714.2209125.28403.3714254.52932.3714254h3.73874c.24529-.0072774.48284.0776832.661.2354796.17815.1602202.28143.378709.28402.6093288z" fill="#fff" fill-rule="evenodd" stroke="#fff" stroke-width=".1" transform="translate(-1167 1)"/></svg>