<svg height="60" viewBox="0 0 60 60" width="60" xmlns="http://www.w3.org/2000/svg"><path d="m1174.67698 1402c-1.45152 0-2.64736.37285-3.4757 1.2011-.82827.82823-1.20913 2.03472-1.20116 3.47819v45.91952c-.00532 1.44348.37021 2.64989 1.20116 3.47819.83366.83096 2.04811 1.22244 3.51832 1.22244h23.91134c3.32918 2.93222 7.69158 4.70056 12.47249 4.70056 10.41612 0 18.89657-8.4398 18.89657-18.86087 0-4.77781-1.78711-9.14546-4.71947-12.47461v-24.04652c-.00799-1.42214-.39418-2.61526-1.2225-3.43558-.82833-.82032-2.03482-1.17983-3.4757-1.17983zm0 1.34761h22.26816v25.62554h-25.59763l.00016-22.31752c-.00799-1.21173.2903-1.99742.80168-2.50876s1.30241-.80164 2.5275-.80164zm23.61612 0h22.28929c1.2118 0 2.01348.29296 2.5275.80165.51403.50867.81498 1.2943.8203 2.48742v22.65364c-3.36914-3.12394-7.88113-5.03614-12.82908-5.03614s-9.43908 1.9122-12.80801 5.03614zm12.72544 6.72199c-.33026.04261-.60192.36219-.5886.69508v4.71924h-4.86593c-.35422.03728-.6392.39415-.60191.74839.03995.35421.39684.63917.74843.59923h4.71947v4.71924c-.00532.35687.31694.68444.67383.68444s.67915-.32757.67383-.68444v-4.71924h4.71947c.35689.00532.68447-.31692.68447-.6738 0-.35687-.32759-.67911-.68447-.67379h-4.71947v-4.71924c.01598-.38883-.37021-.74574-.75907-.69508zm-32.42383 5.41698c-.35423.03728-.63921.39415-.60192.74839.03995.35421.39684.63917.74843.59923h10.78636c.35689.00532.68447-.31692.68447-.6738 0-.35687-.32759-.67911-.68447-.67379h-10.93295zm32.50633 10.09381c9.68931 0 17.52748 7.86165 17.52748 17.55321s-7.83817 17.53481-17.52748 17.53481-17.50635-7.84325-17.50635-17.53481 7.81977-17.55321 17.50635-17.55321zm-39.75337 4.74051h25.89066c-3.10814 3.36897-5.01511 7.87529-5.01511 12.81277 0 4.94825 1.91495 9.44612 5.03638 12.81277h-22.54225c-1.24644 0-2.05609-.30893-2.57012-.82291-.51403-.51134-.80966-1.30501-.80168-2.53004zm8.50158 8.49026c-.23704.26366-.27965.7244-.01066.97209l3.32918 3.35035-3.32918 3.32902c-.29297.23703-.3196.73503-.05326 1.0014.26634.26632.76439.23969 1.00145-.05326l3.35052-3.35035 3.32918 3.35035c.23704.29296.73507.31959 1.00146.05326.26633-.26632.2397-.76434-.05327-1.0014l-3.35052-3.32902 3.35052-3.35035c.25035-.23969.19975-.65781-.01065-.91884-.30363-.30627-.60192-.2823-.9375-.0293l-3.32918 3.32902-3.35052-3.32902c-.53267-.33822-.70848-.23436-.9375-.02396zm25.71202.95075c-.35422.03728-.6392.39415-.60191.74839.03994.35421.39684.63918.74843.59923h10.78635c.35689.00799.68448-.31692.68448-.67379 0-.35688-.32759-.67912-.68448-.6738h-10.93294zm-.59925 6.16271c.0506.35154.41548.62853.76704.58058h10.78635c.3569.00799.68448-.31692.68448-.67379s-.32759-.67912-.68448-.67379h-10.9118c-.45011.03196-.66051.35953-.64187.76966z" fill="#fff" fill-rule="evenodd" transform="translate(-1170 -1402)"/></svg>